<svg width="118" height="100" viewBox="0 0 118 100" fill="none" xmlns="http://www.w3.org/2000/svg">
<path d="M2.00003 98.2505V2.39453H116.73V98.2505H2.00003Z" stroke="black" stroke-width="2.30989"/>
<path d="M75 37L91.4103 52.6629C91.707 52.9461 91.7296 53.4123 91.4616 53.7229L75 72.8016" stroke="black" stroke-width="2.69487"/>
<path d="M42.94 37L26.5297 52.6629C26.233 52.9461 26.2104 53.4123 26.4784 53.7229L42.94 72.8016" stroke="black" stroke-width="2.69487"/>
<path d="M65.32 32L62.24 44.7038L53 78.5806" stroke="black" stroke-width="2.69487"/>
<path d="M2 20.4783H116.345V2H2V20.4783Z" stroke="black" stroke-width="2.30989"/>
<ellipse cx="13.5501" cy="11.2473" rx="2.31" ry="2.30978" fill="black"/>
<ellipse cx="13.5501" cy="11.2473" rx="2.31" ry="2.30978" fill="black"/>
<ellipse cx="13.5501" cy="11.2473" rx="2.31" ry="2.30978" fill="black"/>
<ellipse cx="33.57" cy="11.2473" rx="2.31" ry="2.30978" fill="black"/>
<ellipse cx="33.57" cy="11.2473" rx="2.31" ry="2.30978" fill="black"/>
<ellipse cx="33.57" cy="11.2473" rx="2.31" ry="2.30978" fill="black"/>
<ellipse cx="23.56" cy="11.2473" rx="2.31" ry="2.30978" fill="black"/>
<ellipse cx="23.56" cy="11.2473" rx="2.31" ry="2.30978" fill="black"/>
<ellipse cx="23.56" cy="11.2473" rx="2.31" ry="2.30978" fill="black"/>
</svg>
