<svg width="92" height="92" viewBox="0 0 92 92" fill="none" xmlns="http://www.w3.org/2000/svg">
<path d="M2.00006 31.1602V89.5162H89.516V31.1602" stroke="black" stroke-width="3.36641"/>
<path d="M85.0287 42.3809H46.8807" stroke="black" stroke-width="3.36641"/>
<path d="M85.0287 33.4023H46.8807" stroke="black" stroke-width="3.36641"/>
<path d="M85.0287 51.3623H46.8807" stroke="black" stroke-width="3.36641"/>
<path d="M85.0283 60.3408H46.8803" stroke="black" stroke-width="3.36641"/>
<path d="M85.0283 69.3359H46.8804" stroke="black" stroke-width="3.36641"/>
<path d="M85.028 78.3174H46.8801" stroke="black" stroke-width="3.36641"/>
<path d="M40.149 78.2916V33.4023H8.733V78.2916H40.149Z" stroke="black" stroke-width="3.36641"/>
<path d="M89.5159 24.4446V2H2V24.4446H89.5159Z" stroke="black" stroke-width="3.36641"/>
<rect x="22.1962" y="10.9756" width="4.488" height="4.48893" fill="black"/>
<rect x="22.1962" y="10.9756" width="4.488" height="4.48893" fill="black"/>
<rect x="22.1962" y="10.9756" width="4.488" height="4.48893" fill="black"/>
<rect x="15.4641" y="10.9756" width="4.488" height="4.48893" fill="black"/>
<rect x="15.4641" y="10.9756" width="4.488" height="4.48893" fill="black"/>
<rect x="15.4641" y="10.9756" width="4.488" height="4.48893" fill="black"/>
<rect x="8.73206" y="10.9756" width="4.488" height="4.48893" fill="black"/>
<rect x="8.73206" y="10.9756" width="4.488" height="4.48893" fill="black"/>
<rect x="8.73206" y="10.9756" width="4.488" height="4.48893" fill="black"/>
</svg>
