<svg width="120" height="136" viewBox="0 0 120 136" fill="none" xmlns="http://www.w3.org/2000/svg">
<path d="M54.4158 119.84L40.1576 105.048C37.8632 102.668 34.1191 102.466 31.5821 104.586L29.5317 106.299C26.855 108.536 26.5051 112.522 28.7513 115.191L42.3437 131.34C43.5407 132.762 45.3048 133.583 47.1637 133.583H48.6096C49.9969 133.583 51.3455 133.125 52.4459 132.28L53.7164 131.305C55.2695 130.113 56.18 128.266 56.18 126.308V124.212C56.18 122.582 55.5476 121.014 54.4158 119.84Z" stroke="black" stroke-width="3.78001"/>
<path d="M40.3811 30.7012L23.7171 72.3608C23.5358 72.8142 23.6327 73.3315 23.9659 73.6885L40.4744 91.3761C40.8277 91.7546 41.3766 91.8785 41.8582 91.6884L87.0712 73.8413C87.9357 73.5 88.1458 72.3722 87.4622 71.7425L42.4046 30.2423C41.7555 29.6445 40.7088 29.8818 40.3811 30.7012Z" stroke="black" stroke-width="3.78001"/>
<path d="M48.3352 19.2541L46.3135 19.3164C43.4121 19.4059 41.1326 21.8306 41.2221 24.732C41.266 26.1557 41.8859 27.5007 42.9398 28.4589L89.8567 71.1143C91.066 72.2138 92.6554 72.8002 94.289 72.7498L95.8643 72.7012C98.9989 72.6045 101.462 69.985 101.365 66.8505C101.317 65.2993 100.636 63.8353 99.4812 62.7989L72.3756 38.4809L52.7366 20.8617C51.5307 19.7798 49.9544 19.2041 48.3352 19.2541Z" stroke="black" stroke-width="3.78001"/>
<path d="M82.6193 3.47809L78.3305 24.4642C78.0518 25.8277 76.7205 26.7072 75.357 26.4286C73.9934 26.1499 73.1139 24.8186 73.3926 23.455L77.6814 2.46897C77.96 1.10539 79.2913 0.225901 80.6549 0.504563C82.0185 0.783226 82.898 2.11452 82.6193 3.47809Z" fill="black"/>
<path d="M99.5638 43.0088L117.251 30.9266C118.4 30.1415 118.695 28.5735 117.91 27.4243C117.125 26.2751 115.557 25.9799 114.408 26.7649L96.7209 38.8471C95.5717 39.6322 95.2765 41.2002 96.0615 42.3494C96.8466 43.4986 98.4146 43.7938 99.5638 43.0088Z" fill="black"/>
<path d="M104.382 14.3366L90.8084 30.9065C89.9264 31.9832 88.3386 32.141 87.262 31.259C86.1854 30.3771 86.0276 28.7893 86.9095 27.7127L100.483 11.1428C101.365 10.0661 102.953 9.90832 104.03 10.7903C105.106 11.6722 105.264 13.26 104.382 14.3366Z" fill="black"/>
<path d="M3.84524 90.7882L17.337 77.2964C19.6927 74.9408 23.4751 74.8263 25.9689 77.0351L38.7031 88.3139C41.3697 90.6757 41.5493 94.7769 39.0995 97.3628L32.6698 104.15C32.384 104.451 32.069 104.724 31.7294 104.964L23.1636 111.01C22.1006 111.76 20.8315 112.163 19.5305 112.163H14.1794C12.438 112.163 10.7743 111.442 9.58328 110.172L3.70393 103.901C2.60922 102.733 2 101.193 2 99.592V95.2429C2 93.5721 2.66375 91.9696 3.84524 90.7882Z" stroke="black" stroke-width="3.78001"/>
<path d="M53.66 103.344H39.8L53.66 115.944V103.344Z" stroke="black" stroke-width="3.78001"/>
</svg>
